HIERARCHY
ROOT hips
{
	OFFSET 0.000000 104.274902 0.000000
	CHANNELS 6 Xposition Yposition Zposition Xrotation Yrotation Zrotation
	JOINT spine
	{
		OFFSET 0.000000 10.181549 0.131524
		CHANNELS 6 Xposition Yposition Zposition Xrotation Yrotation Zrotation
		JOINT chest
		{
			OFFSET 0.000000 9.893990 -1.470706
			CHANNELS 3 Xrotation Yrotation Zrotation
			JOINT upperChest
			{
				OFFSET 0.000000 9.220787 -1.370637
				CHANNELS 3 Xrotation Yrotation Zrotation
				JOINT neck
				{
					OFFSET 0.000000 16.740372 -2.049022
					CHANNELS 6 Xposition Yposition Zposition Xrotation Yrotation Zrotation
					JOINT head
					{
						OFFSET 0.000000 9.617859 1.684976
						CHANNELS 6 Xposition Yposition Zposition Xrotation Yrotation Zrotation
						JOINT headEnd
						{
							OFFSET 0.000000 22.037384 7.501072
							CHANNELS 6 Xposition Yposition Zposition Xrotation Yrotation Zrotation
							End Site
							{
								OFFSET 0.000000 23.106567 -2.828246
							}
						}
					}
				}
				JOINT rightShoulder
				{
					OFFSET -4.570000 11.014877 -2.160840
					CHANNELS 6 Xposition Yposition Zposition Xrotation Yrotation Zrotation
					JOINT rightUpperArm
					{
						OFFSET -10.592867 -0.524796 -2.232105
						CHANNELS 3 Xrotation Yrotation Zrotation
						JOINT rightLowerArm
						{
							OFFSET -27.841497 0.000000 -0.000002
							CHANNELS 3 Xrotation Yrotation Zrotation
							JOINT rightHand
							{
								OFFSET -28.328812 0.000000 -0.000001
								CHANNELS 3 Xrotation Yrotation Zrotation
								JOINT rightThumbProximal
								{
									OFFSET -2.464798 -1.573990 2.681911
									CHANNELS 6 Xposition Yposition Zposition Xrotation Yrotation Zrotation
									JOINT rightThumbIntermediate
									{
										OFFSET -3.244781 -1.873383 1.873376
										CHANNELS 3 Xrotation Yrotation Zrotation
										JOINT rightThumbDistal
										{
											OFFSET -2.646263 -1.527817 1.527818
											CHANNELS 6 Xposition Yposition Zposition Xrotation Yrotation Zrotation
											JOINT rightHandThumb4
											{
												OFFSET -1.994591 -1.151581 1.151575
												CHANNELS 6 Xposition Yposition Zposition Xrotation Yrotation Zrotation
												End Site
												{
													OFFSET -1.860176 -1.142715 1.365483
												}
											}
										}
									}
								}
								JOINT rightIndexProximal
								{
									OFFSET -9.108299 -0.517883 2.259803
									CHANNELS 6 Xposition Yposition Zposition Xrotation Yrotation Zrotation
									JOINT rightIndexIntermediate
									{
										OFFSET -3.699997 0.000000 0.000000
										CHANNELS 3 Xrotation Yrotation Zrotation
										JOINT rightIndexDistal
										{
											OFFSET -2.850006 0.000000 0.000000
											CHANNELS 3 Xrotation Yrotation Zrotation
											JOINT rightHandIndex4
											{
												OFFSET -2.772194 0.000000 0.000000
												CHANNELS 3 Xrotation Yrotation Zrotation
												End Site
												{
													OFFSET -2.772202 0.000000 -0.000484
												}
											}
										}
									}
								}
								JOINT rightMiddleProximal
								{
									OFFSET -9.532501 0.000000 -0.000000
									CHANNELS 6 Xposition Yposition Zposition Xrotation Yrotation Zrotation
									JOINT rightMiddleIntermediate
									{
										OFFSET -3.699997 0.000000 0.000000
										CHANNELS 3 Xrotation Yrotation Zrotation
										JOINT rightMiddleDistal
										{
											OFFSET -2.949997 0.000000 0.000000
											CHANNELS 3 Xrotation Yrotation Zrotation
											JOINT rightHandMiddle4
											{
												OFFSET -2.946594 0.000000 0.000000
												CHANNELS 3 Xrotation Yrotation Zrotation
												End Site
												{
													OFFSET -2.946602 0.000000 -0.000982
												}
											}
										}
									}
								}
								JOINT rightRingProximal
								{
									OFFSET -9.103600 -0.043106 -1.865100
									CHANNELS 6 Xposition Yposition Zposition Xrotation Yrotation Zrotation
									JOINT rightRingIntermediate
									{
										OFFSET -3.379303 0.000000 0.000000
										CHANNELS 3 Xrotation Yrotation Zrotation
										JOINT rightRingDistal
										{
											OFFSET -2.889694 0.000000 0.000000
											CHANNELS 3 Xrotation Yrotation Zrotation
											JOINT rightHandRing4
											{
												OFFSET -2.638802 0.000000 0.000000
												CHANNELS 3 Xrotation Yrotation Zrotation
												End Site
												{
													OFFSET -2.638802 0.000000 0.004218
												}
											}
										}
									}
								}
								JOINT rightLittleProximal
								{
									OFFSET -8.076698 -0.486725 -3.806299
									CHANNELS 6 Xposition Yposition Zposition Xrotation Yrotation Zrotation
									JOINT rightLittleIntermediate
									{
										OFFSET -3.600006 0.000000 0.000000
										CHANNELS 3 Xrotation Yrotation Zrotation
										JOINT rightLittleDistal
										{
											OFFSET -2.099998 0.000000 0.000000
											CHANNELS 3 Xrotation Yrotation Zrotation
											JOINT rightHandPinky4
											{
												OFFSET -2.115791 0.000000 0.000000
												CHANNELS 3 Xrotation Yrotation Zrotation
												End Site
												{
													OFFSET -2.115799 0.000000 0.000174
												}
											}
										}
									}
								}
							}
						}
					}
				}
				JOINT leftShoulder
				{
					OFFSET 4.570400 11.014679 -2.160816
					CHANNELS 6 Xposition Yposition Zposition Xrotation Yrotation Zrotation
					JOINT leftUpperArm
					{
						OFFSET 10.592373 -0.524597 -2.232116
						CHANNELS 3 Xrotation Yrotation Zrotation
						JOINT leftLowerArm
						{
							OFFSET 27.841488 0.000000 0.000001
							CHANNELS 3 Xrotation Yrotation Zrotation
							JOINT leftHand
							{
								OFFSET 28.328808 0.000000 -0.000000
								CHANNELS 3 Xrotation Yrotation Zrotation
								JOINT leftThumbProximal
								{
									OFFSET 2.466103 -1.576202 2.681698
									CHANNELS 6 Xposition Yposition Zposition Xrotation Yrotation Zrotation
									JOINT leftThumbIntermediate
									{
										OFFSET 3.243317 -1.872528 1.872530
										CHANNELS 3 Xrotation Yrotation Zrotation
										JOINT leftThumbDistal
										{
											OFFSET 2.647881 -1.528763 1.528754
											CHANNELS 6 Xposition Yposition Zposition Xrotation Yrotation Zrotation
											JOINT leftHandThumb4
											{
												OFFSET 1.998924 -1.154083 1.154080
												CHANNELS 6 Xposition Yposition Zposition Xrotation Yrotation Zrotation
												End Site
												{
													OFFSET 1.884041 -1.149155 1.337651
												}
											}
										}
									}
								}
								JOINT leftIndexProximal
								{
									OFFSET 9.109299 -0.518005 2.259900
									CHANNELS 6 Xposition Yposition Zposition Xrotation Yrotation Zrotation
									JOINT leftIndexIntermediate
									{
										OFFSET 3.699997 0.000000 0.000000
										CHANNELS 3 Xrotation Yrotation Zrotation
										JOINT leftIndexDistal
										{
											OFFSET 2.850006 0.000000 0.000000
											CHANNELS 3 Xrotation Yrotation Zrotation
											JOINT leftHandIndex4
											{
												OFFSET 2.774895 0.000000 0.000000
												CHANNELS 3 Xrotation Yrotation Zrotation
												End Site
												{
													OFFSET 2.774902 0.000000 -0.000072
												}
											}
										}
									}
								}
								JOINT leftMiddleProximal
								{
									OFFSET 9.533401 0.000000 0.000000
									CHANNELS 6 Xposition Yposition Zposition Xrotation Yrotation Zrotation
									JOINT leftMiddleIntermediate
									{
										OFFSET 3.699997 0.000000 0.000000
										CHANNELS 3 Xrotation Yrotation Zrotation
										JOINT leftMiddleDistal
										{
											OFFSET 2.949997 0.000000 0.000000
											CHANNELS 3 Xrotation Yrotation Zrotation
											JOINT leftHandMiddle4
											{
												OFFSET 2.952896 0.000000 0.000000
												CHANNELS 3 Xrotation Yrotation Zrotation
												End Site
												{
													OFFSET 2.952904 0.000000 0.000165
												}
											}
										}
									}
								}
								JOINT leftRingProximal
								{
									OFFSET 9.104500 -0.042999 -1.865101
									CHANNELS 6 Xposition Yposition Zposition Xrotation Yrotation Zrotation
									JOINT leftRingIntermediate
									{
										OFFSET 3.149994 0.000000 0.000000
										CHANNELS 3 Xrotation Yrotation Zrotation
										JOINT leftRingDistal
										{
											OFFSET 2.950005 0.000000 0.000000
											CHANNELS 3 Xrotation Yrotation Zrotation
											JOINT leftHandRing4
											{
												OFFSET 2.644302 0.000000 0.000000
												CHANNELS 3 Xrotation Yrotation Zrotation
												End Site
												{
													OFFSET 2.644302 0.000000 0.000083
												}
											}
										}
									}
								}
								JOINT leftLittleProximal
								{
									OFFSET 8.077805 -0.486893 -3.806302
									CHANNELS 6 Xposition Yposition Zposition Xrotation Yrotation Zrotation
									JOINT leftLittleIntermediate
									{
										OFFSET 3.600006 0.000000 0.000000
										CHANNELS 3 Xrotation Yrotation Zrotation
										JOINT leftLittleDistal
										{
											OFFSET 2.099998 0.000000 0.000000
											CHANNELS 3 Xrotation Yrotation Zrotation
											JOINT leftHandPinky4
											{
												OFFSET 2.125496 0.000000 0.000000
												CHANNELS 3 Xrotation Yrotation Zrotation
												End Site
												{
													OFFSET 2.125504 0.000000 -0.001254
												}
											}
										}
									}
								}
							}
						}
					}
				}
			}
		}
	}
	JOINT rightUpperLeg
	{
		OFFSET -8.207800 -6.751701 -1.599544
		CHANNELS 6 Xposition Yposition Zposition Xrotation Yrotation Zrotation
		JOINT rightLowerLeg
		{
			OFFSET 0.000004 -44.370152 0.345934
			CHANNELS 3 Xrotation Yrotation Zrotation
			JOINT rightFoot
			{
				OFFSET 0.000004 -44.423664 -3.043535
				CHANNELS 3 Xrotation Yrotation Zrotation
				JOINT rightToes
				{
					OFFSET 0.000001 -8.728691 10.710592
					CHANNELS 3 Xrotation Yrotation Zrotation
					JOINT rightToesEnd
					{
						OFFSET 0.000000 -0.000665 9.278101
						CHANNELS 3 Xrotation Yrotation Zrotation
						End Site
						{
							OFFSET 0.000000 -0.000665 9.278103
						}
					}
				}
			}
		}
	}
	JOINT leftUpperLeg
	{
		OFFSET 8.207800 -6.751701 -1.599544
		CHANNELS 6 Xposition Yposition Zposition Xrotation Yrotation Zrotation
		JOINT leftLowerLeg
		{
			OFFSET 0.000004 -44.370037 0.346940
			CHANNELS 3 Xrotation Yrotation Zrotation
			JOINT leftFoot
			{
				OFFSET 0.000004 -44.423611 -3.044388
				CHANNELS 3 Xrotation Yrotation Zrotation
				JOINT leftToes
				{
					OFFSET 0.000001 -8.728690 10.710592
					CHANNELS 3 Xrotation Yrotation Zrotation
					JOINT leftToesEnd
					{
						OFFSET 0.000000 -0.000680 9.278101
						CHANNELS 3 Xrotation Yrotation Zrotation
						End Site
						{
							OFFSET 0.000000 -0.000680 9.278101
						}
					}
				}
			}
		}
	}
}
MOTION
Frames: 4
Frame Time: 0.033333
-0.090337 90.461006 3.147503 0.932626 -20.922727 0.486748 0.000000 10.181545 0.131524 13.835288 4.700479 -1.659775 2.266931 1.174008 1.097332 2.272363 1.103863 0.088064 0.000001 16.740358 -2.049025 3.958447 1.299019 -0.228082 -0.000002 9.617834 1.684977 -12.568687 21.703580 -8.135473 -0.000001 22.037369 7.501072 -0.000000 -0.000000 0.000000 -4.569997 11.014874 -2.160843 1.283025 22.151914 16.317088 -6.057949 35.431866 14.399695 -0.000046 49.631037 0.000096 -2.799378 42.270091 -41.420244 -2.464805 -1.574006 2.681903 6.373927 3.345155 -4.904544 21.203714 -22.299514 11.731516 -2.646267 -1.527816 1.527818 2.202169 -21.534260 -20.418716 -1.994591 -1.151599 1.151582 0.000003 -0.000003 0.000003 -9.108317 -0.517875 2.259808 3.456142 -6.761192 74.391545 5.216386 -4.623526 96.904183 1.415797 -3.345832 45.861609 -0.000001 -0.000001 0.000000 -9.532498 0.000015 0.000008 6.314716 -7.372353 78.080448 5.232353 -4.621590 97.102402 1.414630 -3.344705 45.841703 -0.000000 -0.000004 0.000001 -9.103605 -0.043091 -1.865097 9.631257 -7.699097 81.769946 5.296064 -4.613209 97.893748 1.410571 -3.340777 45.772390 -0.000001 0.000002 -0.000002 -8.076697 -0.486719 -3.806297 7.449891 -20.460877 84.317517 5.216390 -4.623544 96.904183 1.415784 -3.345827 45.861606 -0.000003 0.000003 -0.000000 4.570402 11.014713 -2.160820 3.126733 2.458851 -17.876721 15.065464 -45.971633 -15.367523 -0.000013 -56.987861 -0.000015 -27.717000 -20.915351 31.361254 2.466095 -1.576220 2.681702 7.307697 -1.466658 5.489703 20.813072 20.427641 -11.883564 2.647881 -1.528738 1.528741 0.953468 15.334601 19.385212 1.998932 -1.154065 1.154079 -0.000000 0.000000 0.000003 9.109292 -0.518038 2.259909 4.417823 8.004930 -75.111795 6.554558 5.808937 -96.917331 1.776007 4.202343 -45.806739 0.000001 0.000002 0.000000 9.533401 -0.000026 0.000002 7.360136 8.595640 -78.812610 6.574656 5.806495 -97.115933 1.774555 4.200942 -45.786829 -0.000000 -0.000001 -0.000002 9.104492 -0.043011 -1.865102 10.757662 8.890867 -82.514300 6.654783 5.795961 -97.908767 1.769481 4.196017 -45.717513 -0.000003 0.000002 0.000000 8.077800 -0.486908 -3.806300 8.804898 21.686177 -85.088741 6.554555 5.808948 -96.917352 1.776022 4.202365 -45.806742 -0.000001 -0.000004 0.000000 -8.207801 -6.751725 -1.599541 -20.991155 -9.277322 -4.195226 59.088021 -13.472358 -1.096008 -31.366223 -19.593356 7.610117 -7.259255 -0.000002 -0.000003 -0.000000 -0.000003 -0.000000 8.207798 -6.751709 -1.599542 -43.935810 9.635146 17.484055 62.847583 4.856456 -4.388390 -9.043664 1.397363 -0.851718 -13.320833 0.000002 0.000001 -0.000000 -0.000000 -0.000000 
-0.356435 91.081108 3.476936 0.463789 -15.798916 -1.442946 -0.000000 10.181563 0.131523 14.039203 1.725688 -0.051208 2.662978 0.247502 1.507612 2.673757 0.186248 0.572953 0.000000 16.740341 -2.049019 3.646931 1.375262 0.202544 -0.000004 9.617847 1.684975 -13.429710 22.154328 -7.106375 -0.000000 22.037384 7.501076 -0.000002 0.000000 -0.000000 -4.570000 11.014865 -2.160835 2.590661 17.482482 19.655218 -2.057135 31.535591 12.528251 -0.000021 47.957412 0.000065 -3.715047 44.913377 -40.501488 -2.464800 -1.574007 2.681908 6.373916 3.345158 -4.904519 21.203721 -22.299519 11.731497 -2.646271 -1.527806 1.527818 2.202191 -21.534258 -20.418692 -1.994591 -1.151582 1.151590 -0.000003 -0.000003 0.000003 -9.108314 -0.517885 2.259794 3.456113 -6.761188 74.391572 5.216388 -4.623536 96.904210 1.415792 -3.345825 45.861609 0.000003 0.000001 0.000000 -9.532520 0.000007 -0.000002 6.314696 -7.372359 78.080455 5.232371 -4.621586 97.102416 1.414627 -3.344686 45.841696 0.000001 0.000001 0.000002 -9.103595 -0.043092 -1.865102 9.631240 -7.699096 81.769946 5.296063 -4.613217 97.893755 1.410568 -3.340775 45.772383 0.000004 0.000001 -0.000001 -8.076697 -0.486717 -3.806298 7.449877 -20.460875 84.317483 5.216393 -4.623540 96.904183 1.415800 -3.345838 45.861592 -0.000000 -0.000001 0.000001 4.570400 11.014653 -2.160815 1.964951 -2.372497 -15.135054 13.102618 -50.359121 -10.641331 0.000000 -58.614020 -0.000007 -27.502349 -18.528191 33.006695 2.466102 -1.576209 2.681712 7.307718 -1.466663 5.489676 20.813036 20.427653 -11.883553 2.647882 -1.528748 1.528755 0.953456 15.334560 19.385218 1.998920 -1.154100 1.154075 -0.000001 0.000002 0.000005 9.109283 -0.518023 2.259919 4.417819 8.004922 -75.111768 6.554552 5.808950 -96.917263 1.776016 4.202352 -45.806711 -0.000000 0.000002 -0.000003 9.533406 -0.000007 0.000020 7.360135 8.595649 -78.812549 6.574646 5.806495 -97.115871 1.774573 4.200939 -45.786822 0.000001 0.000001 0.000000 9.104481 -0.042995 -1.865086 10.757657 8.890864 -82.514252 6.654777 5.795990 -97.908692 1.769476 4.196020 -45.717475 -0.000001 0.000002 0.000000 8.077789 -0.486896 -3.806293 8.804873 21.686143 -85.088666 6.554542 5.808949 -96.917277 1.776008 4.202345 -45.806725 -0.000001 0.000004 0.000000 -8.207800 -6.751697 -1.599545 -18.119092 -11.458646 -2.359261 56.620124 -13.472495 0.114446 -30.908720 -22.552429 6.628919 -7.165230 0.000011 0.000006 -0.000000 0.000002 0.000000 8.207799 -6.751692 -1.599548 -44.911421 11.208673 20.037898 61.908193 4.805772 -6.131985 -8.242322 3.524434 3.681016 -13.070102 0.000003 -0.000003 -0.000000 -0.000001 -0.000000 
-0.632412 90.911934 3.812374 0.162211 -10.955171 -3.010572 0.000000 10.181554 0.131524 14.356974 -1.400913 1.382602 3.097304 -0.709785 1.856857 3.112673 -0.759186 1.001640 -0.000001 16.740389 -2.049016 2.914931 1.548844 0.352019 -0.000003 9.617846 1.684978 -14.319055 23.167315 -5.709799 0.000000 22.037369 7.501074 -0.000000 0.000001 -0.000000 -4.569998 11.014871 -2.160831 4.327917 13.514846 22.104459 0.116532 28.484997 11.566153 -0.000029 46.262726 0.000054 -4.904163 45.632651 -37.496181 -2.464794 -1.573990 2.681913 6.373916 3.345147 -4.904550 21.203721 -22.299516 11.731526 -2.646267 -1.527789 1.527833 2.202179 -21.534258 -20.418712 -1.994591 -1.151583 1.151582 0.000000 -0.000006 -0.000000 -9.108320 -0.517884 2.259807 3.456121 -6.761199 74.391593 5.216381 -4.623543 96.904217 1.415780 -3.345812 45.861609 -0.000001 -0.000000 -0.000001 -9.532511 0.000011 0.000008 6.314695 -7.372347 78.080462 5.232364 -4.621568 97.102443 1.414628 -3.344690 45.841699 0.000001 0.000003 -0.000001 -9.103608 -0.043119 -1.865092 9.631263 -7.699102 81.769980 5.296067 -4.613217 97.893796 1.410588 -3.340778 45.772362 0.000001 -0.000001 0.000001 -8.076703 -0.486729 -3.806302 7.449894 -20.460877 84.317538 5.216411 -4.623542 96.904190 1.415786 -3.345825 45.861613 -0.000001 0.000000 -0.000000 4.570402 11.014699 -2.160812 1.157717 -7.241818 -12.010215 9.315414 -53.123982 -6.617151 -0.000016 -59.584808 -0.000020 -26.606683 -18.743820 32.487655 2.466095 -1.576205 2.681695 7.307724 -1.466675 5.489671 20.813005 20.427694 -11.883529 2.647871 -1.528733 1.528758 0.953448 15.334507 19.385212 1.998932 -1.154081 1.154076 0.000001 0.000001 -0.000000 9.109290 -0.518011 2.259894 4.417820 8.004928 -75.111713 6.554541 5.808935 -96.917201 1.776010 4.202350 -45.806677 -0.000002 0.000002 -0.000003 9.533395 -0.000004 -0.000004 7.360128 8.595654 -78.812515 6.574643 5.806497 -97.115789 1.774530 4.200930 -45.786795 -0.000000 0.000001 0.000000 9.104481 -0.042998 -1.865102 10.757649 8.890869 -82.514197 6.654762 5.795980 -97.908631 1.769489 4.195996 -45.717465 -0.000001 0.000004 0.000001 8.077812 -0.486899 -3.806305 8.804882 21.686155 -85.088625 6.554546 5.808958 -96.917188 1.776012 4.202354 -45.806705 0.000001 0.000003 0.000001 -8.207801 -6.751712 -1.599541 -16.275311 -13.154278 -0.640863 56.067749 -13.792644 1.217383 -31.366957 -25.438042 6.046969 -7.271876 0.000013 -0.000001 -0.000000 -0.000003 -0.000001 8.207803 -6.751698 -1.599544 -46.740549 12.479399 22.219189 62.513730 5.068933 -7.344196 -8.426304 5.498909 7.447989 -12.884308 -0.000003 0.000002 -0.000000 -0.000001 -0.000000 
-0.940441 90.164993 4.041506 -0.092253 -6.853863 -4.172404 -0.000000 10.181537 0.131526 14.798001 -4.300863 2.461186 3.589015 -1.591478 2.095975 3.607316 -1.628915 1.318627 -0.000000 16.740364 -2.049023 2.322133 1.768191 0.188677 -0.000001 9.617823 1.684974 -15.670132 24.430180 -3.924815 0.000000 22.037399 7.501070 -0.000000 0.000001 -0.000000 -4.570001 11.014862 -2.160845 6.146653 10.436539 23.629770 1.181058 26.432327 11.505637 -0.000000 44.960349 0.000026 -5.836724 44.091364 -33.196618 -2.464794 -1.573976 2.681912 6.373909 3.345165 -4.904536 21.203706 -22.299499 11.731514 -2.646260 -1.527804 1.527819 2.202187 -21.534277 -20.418709 -1.994606 -1.151568 1.151575 0.000000 -0.000007 0.000003 -9.108308 -0.517869 2.259805 3.456128 -6.761192 74.391620 5.216394 -4.623525 96.904245 1.415782 -3.345827 45.861633 -0.000006 0.000001 -0.000000 -9.532528 0.000002 0.000001 6.314690 -7.372362 78.080503 5.232371 -4.621581 97.102457 1.414636 -3.344704 45.841726 -0.000002 0.000000 0.000001 -9.103600 -0.043107 -1.865096 9.631240 -7.699103 81.770021 5.296095 -4.613213 97.893823 1.410578 -3.340773 45.772390 0.000001 -0.000000 -0.000001 -8.076710 -0.486718 -3.806300 7.449885 -20.460865 84.317558 5.216392 -4.623546 96.904238 1.415790 -3.345843 45.861640 -0.000001 0.000002 0.000003 4.570399 11.014698 -2.160821 0.781952 -11.875612 -8.776084 4.032555 -54.795428 -4.055919 0.000009 -58.834109 0.000016 -25.175247 -21.446316 30.018859 2.466107 -1.576203 2.681693 7.307695 -1.466684 5.489704 20.813065 20.427636 -11.883581 2.647877 -1.528749 1.528754 0.953459 15.334623 19.385238 1.998921 -1.154092 1.154084 0.000001 0.000001 0.000001 9.109287 -0.518011 2.259890 4.417818 8.004914 -75.111850 6.554557 5.808950 -96.917406 1.776021 4.202359 -45.806759 0.000002 0.000001 0.000000 9.533392 0.000001 -0.000008 7.360140 8.595628 -78.812651 6.574664 5.806490 -97.115974 1.774550 4.200949 -45.786866 0.000004 -0.000002 0.000000 9.104505 -0.042990 -1.865103 10.757661 8.890850 -82.514354 6.654792 5.795975 -97.908822 1.769480 4.196010 -45.717513 -0.000002 0.000001 -0.000001 8.077814 -0.486897 -3.806308 8.804895 21.686155 -85.088769 6.554540 5.808959 -96.917427 1.776002 4.202366 -45.806759 0.000000 -0.000000 0.000001 -8.207802 -6.751704 -1.599541 -15.412575 -14.329342 0.807391 57.108475 -14.274417 2.113239 -32.482006 -28.040624 5.774460 -7.758730 -0.000021 -0.000003 0.000000 -0.000000 -0.000000 8.207799 -6.751708 -1.599553 -48.918867 13.303768 23.945303 64.131597 5.240944 -8.060023 -9.346530 7.373385 10.292509 -12.738293 0.000008 0.000003 0.000000 -0.000003 -0.000000 
